<svg width="505" height="254" viewBox="0 0 505 254" fill="none" xmlns="http://www.w3.org/2000/svg">
<path d="M166.304 253.5C151.066 253.5 135.851 253.227 120.658 252.682C98.9502 251.902 76.5029 251.096 55.639 239.524C41.0438 231.43 28.1175 218.444 18.2578 201.968C11.6678 190.801 6.83575 178.686 3.93132 166.049C-1.48656 143.042 -1.30202 119.07 4.46942 96.1488C6.49195 88.29 9.28016 80.6485 12.794 73.3338C28.0092 41.8262 55.7606 20.6759 88.9328 15.3067C89.2067 15.2711 89.4837 15.2652 89.759 15.289C89.9082 15.297 90.0569 15.3056 90.2085 15.2992L90.4037 15.2372C90.904 15.0633 91.4179 14.9314 91.9401 14.8429C143.1 7.22659 197.184 22.637 248.34 59.4069C287.895 87.8412 340.315 103.153 408.597 106.216L409.567 106.267C428.575 107.359 446.961 115.195 462.741 128.931C478.316 142.487 490.009 160.574 496.558 181.237C497.363 183.756 498.102 186.379 498.752 189.031C499.357 191.496 499.315 194.075 498.628 196.518C497.941 198.962 496.633 201.186 494.832 202.974V202.979L494.662 203.154C494.253 203.561 493.822 203.951 493.382 204.315L492.864 204.742C488.5 208.336 485.054 211.176 480.929 213.381C478.178 214.842 475.252 215.947 472.222 216.668C455.582 220.725 438.684 224.486 421.998 227.848C389.591 234.382 356.331 239.772 323.141 243.868C271.108 250.284 218.731 253.501 166.304 253.5ZM89.371 16.4049C89.2691 16.404 89.1673 16.4109 89.0664 16.4256C56.2044 21.7447 28.7157 42.6873 13.6513 73.8831C10.1722 81.1252 7.41155 88.691 5.40913 96.4719C-0.309718 119.19 -0.491962 142.949 4.87773 165.752C7.75372 178.268 12.539 190.267 19.0654 201.327C28.8285 217.641 41.6226 230.497 56.0648 238.506C76.7414 249.974 99.0829 250.777 120.689 251.552C188.265 253.967 255.926 251.022 323.037 242.745C356.205 238.652 389.444 233.265 421.829 226.735C438.504 223.376 455.39 219.618 472.018 215.563C474.975 214.86 477.831 213.782 480.516 212.356C484.558 210.196 487.971 207.383 492.293 203.823L492.811 203.396C493.189 203.084 493.561 202.75 493.917 202.402L494.019 202.295C497.57 198.715 498.951 193.993 497.808 189.338V189.337C497.165 186.713 496.434 184.119 495.637 181.626C482.259 139.415 447.651 109.585 409.52 107.395L408.556 107.344C377.365 105.945 350.071 102.068 325.117 95.4908C295.329 87.6399 269.322 75.8216 247.821 60.3649C196.86 23.7358 143.002 8.38277 92.0651 15.9629C91.5893 16.045 91.1211 16.1664 90.6654 16.3258L90.3136 16.4242C90.1137 16.4332 89.9135 16.4308 89.7139 16.4171C89.5964 16.411 89.4824 16.4049 89.371 16.4049Z" fill="#F0F0F0"/>
<path d="M157.739 82.8266C156.328 81.4732 154.885 73.9257 153.084 73.1595C154.43 76.1348 153.453 76.9225 153.446 80.1878C153.463 82.0419 153.246 83.8908 152.801 85.6909H122.293V61.8812C122.293 59.7419 122.714 57.6235 123.533 55.647C124.351 53.6704 125.551 51.8745 127.064 50.3618C128.577 48.849 130.373 47.649 132.349 46.8304C134.326 46.0117 136.444 45.5904 138.584 45.5905C139.4 45.6064 140.211 45.7252 140.998 45.944C143.62 46.6519 146.011 48.037 147.929 49.9603C149.847 51.8836 151.225 54.2774 151.926 56.9017C154.252 65.4028 157.951 79.5534 157.739 82.8266Z" fill="#5F2643"/>
<path d="M124.083 112.117L124.098 93.5587L113.189 94.5336L117.039 106.238L115.237 135.658C114.363 135.854 113.565 136.3 112.94 136.942C112.316 137.584 111.891 138.394 111.719 139.272C111.546 140.151 111.633 141.061 111.969 141.892C112.305 142.722 112.875 143.437 113.61 143.949C114.345 144.461 115.213 144.748 116.108 144.775C117.003 144.802 117.887 144.568 118.652 144.101C119.416 143.635 120.028 142.956 120.414 142.148C120.799 141.339 120.941 140.436 120.822 139.548L124.083 112.117Z" fill="#FFB6B6"/>
<path d="M145.551 244.734L149.958 244.734L152.055 227.734H145.55L145.551 244.734Z" fill="#FFB6B6"/>
<path d="M144.059 242.56L151.026 242.144V245.129L157.649 249.704C157.977 249.93 158.223 250.254 158.353 250.63C158.482 251.006 158.488 251.413 158.37 251.793C158.252 252.172 158.015 252.504 157.695 252.74C157.375 252.975 156.987 253.103 156.59 253.103H148.295L146.866 250.15L146.308 253.103H143.18L144.059 242.56Z" fill="#5F2643"/>
<path d="M120.068 244.734L124.476 244.734L126.572 227.734H120.067L120.068 244.734Z" fill="#FFB6B6"/>
<path d="M118.576 242.56L125.543 242.144V245.129L132.166 249.704C132.494 249.93 132.74 250.254 132.87 250.63C132.999 251.006 133.005 251.413 132.887 251.793C132.769 252.172 132.532 252.504 132.212 252.74C131.892 252.975 131.505 253.103 131.107 253.103H122.813L121.383 250.15L120.825 253.103H117.697L118.576 242.56Z" fill="#5F2643"/>
<path d="M141.627 73.5177L132.497 73.6967L126.052 80.4995L120.885 81.2573C118.548 81.6001 116.399 82.7347 114.798 84.4715C113.197 86.2083 112.241 88.4421 112.089 90.7994L112.984 95.7162H118.354L121.461 113.958C120.253 117.037 120.171 119.466 122.651 120.421L130.349 134.921L153.084 124.717C154.237 122.735 154.607 120.744 153.428 118.808L155.053 90.8826H160.518C160.518 85.6597 158.752 81.2566 153.561 80.6754C151.5 80.4523 149.429 80.3338 147.355 80.3204L141.627 73.5177Z" fill="#E6E6E6"/>
<path d="M153.084 124.717C153.084 124.717 130.886 128.656 122.651 120.421C122.651 120.421 121.815 121.84 120.555 124.194C120.193 124.871 119.493 125.329 119.07 126.149C118.686 126.895 117.699 127.811 117.28 128.656C116.944 129.336 117.484 130.224 117.133 130.959C112.916 139.805 107.989 152.282 109.045 160.521C109.726 165.834 111.133 178.198 112.615 191.477C112.731 192.514 111.793 193.847 111.91 194.893C112.019 195.879 113.183 196.578 113.293 197.566C113.366 198.223 112.553 198.892 112.626 199.548C112.705 200.267 113.67 200.972 113.75 201.688C115.78 220.023 117.638 237.142 117.638 237.142H128.021L129.98 198.045L128.379 183.794L132.139 154.972L137.33 182.362L137.998 197.777L143.485 237.858H153.084V199.057L153.8 197.041L153.084 194.456L153.8 191.671L153.084 188.637V124.717Z" fill="#5F2643"/>
<path d="M144.429 68.2231C143.015 70.1018 141.003 71.4428 138.725 72.0253C136.446 72.6078 134.038 72.3971 131.895 71.4278C129.753 70.4585 128.004 68.7885 126.938 66.6927C125.871 64.597 125.55 62.2005 126.028 59.8979C126.505 57.5953 127.752 55.524 129.564 54.025C131.376 52.526 133.644 51.6887 135.996 51.6511C138.347 51.6135 140.641 52.3777 142.5 53.818C144.358 55.2582 145.671 57.2886 146.222 59.5747C146.252 59.6987 146.277 59.8221 146.302 59.9501C146.592 61.3831 146.576 62.8614 146.253 64.2875C145.93 65.7136 145.309 67.055 144.429 68.2231Z" fill="#FFB6B6"/>
<path d="M142.271 62.3181C142.052 61.2162 141.497 60.2094 140.682 59.4358C140.762 60.4917 140.616 61.5526 140.252 62.5472C137.53 62.7883 134.796 62.2467 132.372 60.9862C130.546 59.7474 128.222 59.8548 125.515 60.9862C125.515 59.6696 125.774 58.3659 126.278 57.1495C126.782 55.9332 127.52 54.8279 128.451 53.897C129.382 52.966 130.487 52.2276 131.704 51.7238C132.92 51.2201 134.224 50.9609 135.54 50.9611H137.33C139.989 50.9615 142.539 52.0179 144.419 53.8979C146.299 55.7779 147.355 58.3275 147.356 60.9862C145.703 61.5788 144.002 62.0245 142.271 62.3181Z" fill="#5F2643"/>
<path d="M63.9513 190.092C79.8575 190.092 92.752 177.198 92.752 161.291C92.752 145.385 79.8575 132.491 63.9513 132.491C48.0451 132.491 35.1506 145.385 35.1506 161.291C35.1506 177.198 48.0451 190.092 63.9513 190.092Z" fill="#F0F0F0"/>
<path d="M247.485 57.9475C263.391 57.9475 276.286 45.0529 276.286 29.1467C276.286 13.2406 263.391 0.346039 247.485 0.346039C231.579 0.346039 218.685 13.2406 218.685 29.1467C218.685 45.0529 231.579 57.9475 247.485 57.9475Z" fill="#F0F0F0"/>
<path d="M476.196 194.61C492.103 194.61 504.997 181.715 504.997 165.809C504.997 149.903 492.103 137.008 476.196 137.008C460.29 137.008 447.396 149.903 447.396 165.809C447.396 181.715 460.29 194.61 476.196 194.61Z" fill="#F0F0F0"/>
<path d="M299.439 32.2875V97.5951C299.44 98.9516 298.904 100.253 297.95 101.218C296.996 102.182 295.7 102.731 294.344 102.745C294.325 102.747 294.306 102.748 294.287 102.747H286.686C280.604 102.747 274.772 100.331 270.471 96.0309C266.171 91.7304 263.755 85.8977 263.755 79.816V32.2875C263.755 30.9211 264.298 29.6106 265.264 28.6444C266.23 27.6782 267.541 27.1353 268.907 27.1353H271.987C270.56 31.2977 289.926 33.0501 290.989 27.1353H294.287C295.654 27.1354 296.964 27.6782 297.93 28.6444C298.897 29.6106 299.439 30.9211 299.439 32.2875Z" fill="#2F323A"/>
<path d="M276.883 22.252C276.883 22.0729 276.954 21.9013 277.081 21.7748C277.207 21.6482 277.379 21.577 277.558 21.5768H282.149C282.328 21.5773 282.499 21.6486 282.626 21.7752C282.752 21.9018 282.823 22.0732 282.823 22.252C282.823 22.4307 282.752 22.6021 282.626 22.7287C282.499 22.8553 282.328 22.9266 282.149 22.9272H277.558C277.379 22.927 277.207 22.8558 277.081 22.7292C276.954 22.6026 276.883 22.431 276.883 22.252Z" fill="#5F2643"/>
<path d="M295.865 111.031H266.829C264.577 111.029 262.417 110.133 260.824 108.54C259.231 106.947 258.335 104.787 258.332 102.534V56.8818C258.173 56.7673 258.043 56.6164 257.954 56.4417C257.864 56.267 257.817 56.0735 257.818 55.8772V51.2858C257.817 51.0896 257.864 50.8961 257.954 50.7215C258.043 50.5468 258.173 50.396 258.332 50.2816V49.0493C258.173 48.9349 258.043 48.7841 257.954 48.6094C257.864 48.4347 257.817 48.2413 257.818 48.045V43.4534C257.817 43.2571 257.864 43.0637 257.954 42.889C258.043 42.7144 258.173 42.5636 258.332 42.4491V40.222C258.135 40.1162 257.971 39.959 257.857 39.767C257.742 39.5751 257.682 39.3557 257.683 39.1322V34.5408C257.682 34.3174 257.742 34.0979 257.857 33.9059C257.971 33.7139 258.135 33.5566 258.332 33.4508V27.3481C258.335 25.0954 259.231 22.9357 260.824 21.3428C262.417 19.7499 264.577 18.8539 266.829 18.8514H295.865C298.118 18.8539 300.277 19.75 301.87 21.3428C303.463 22.9357 304.359 25.0954 304.362 27.3481V40.6507C304.515 40.7465 304.641 40.8795 304.728 41.0374C304.816 41.1952 304.862 41.3727 304.862 41.5532V50.3081C304.862 50.4886 304.816 50.6661 304.728 50.824C304.641 50.982 304.515 51.115 304.362 51.2108V102.534C304.359 104.787 303.463 106.947 301.87 108.54C300.277 110.133 298.118 111.029 295.865 111.031ZM266.829 19.9808C264.876 19.983 263.003 20.7599 261.622 22.1411C260.241 23.5222 259.464 25.3949 259.462 27.3481V34.4115L258.918 34.4325C258.89 34.4335 258.863 34.4453 258.844 34.4655C258.824 34.4856 258.813 34.5126 258.812 34.5409V39.1322C258.813 39.1604 258.824 39.1874 258.844 39.2075C258.864 39.2276 258.89 39.2395 258.918 39.2406L259.462 39.2613V43.2421L259.032 43.348C259.008 43.3538 258.987 43.3672 258.972 43.3863C258.956 43.4053 258.948 43.4289 258.947 43.4534V48.045C258.948 48.0695 258.956 48.0931 258.972 48.1121C258.987 48.1312 259.008 48.1446 259.032 48.1504L259.462 48.2562V51.0746L259.032 51.1805C259.008 51.1862 258.987 51.1997 258.972 51.2187C258.956 51.2378 258.948 51.2614 258.947 51.2858V55.8772C258.948 55.9017 258.956 55.9254 258.972 55.9445C258.987 55.9636 259.008 55.977 259.032 55.9828L259.462 56.0887V102.534C259.464 104.488 260.241 106.36 261.622 107.742C263.003 109.123 264.876 109.9 266.829 109.902H295.865C297.818 109.899 299.691 109.123 301.072 107.741C302.453 106.36 303.23 104.488 303.232 102.534V50.2438H303.732V41.6178H303.232V27.3481C303.23 25.3949 302.453 23.5223 301.072 22.1411C299.691 20.76 297.818 19.9831 295.865 19.9808L266.829 19.9808Z" fill="#5F2643"/>
<path d="M284.715 22.9275C285.088 22.9275 285.391 22.6252 285.391 22.2521C285.391 21.8791 285.088 21.5768 284.715 21.5768C284.342 21.5768 284.04 21.8791 284.04 22.2521C284.04 22.6252 284.342 22.9275 284.715 22.9275Z" fill="#5F2643"/>
<path d="M137.834 153.048H62.2819C61.209 153.045 60.1808 152.618 59.4221 151.859C58.6633 151.1 58.2358 150.072 58.2329 148.999V112.186C58.2357 111.113 58.6631 110.085 59.4217 109.326C60.1803 108.567 61.2084 108.14 62.2814 108.137H137.834C138.906 108.14 139.935 108.567 140.693 109.326C141.452 110.084 141.88 111.112 141.883 112.185V148.999C141.88 150.072 141.452 151.1 140.694 151.859C139.935 152.617 138.907 153.045 137.834 153.048Z" fill="white"/>
<path d="M137.834 153.048H62.2819C61.209 153.045 60.1808 152.618 59.4221 151.859C58.6633 151.1 58.2358 150.072 58.2329 148.999V112.186C58.2357 111.113 58.6631 110.085 59.4217 109.326C60.1803 108.567 61.2084 108.14 62.2814 108.137H137.834C138.906 108.14 139.935 108.567 140.693 109.326C141.452 110.084 141.88 111.112 141.883 112.185V148.999C141.88 150.072 141.452 151.1 140.694 151.859C139.935 152.617 138.907 153.045 137.834 153.048ZM62.2819 109.266C61.5082 109.269 60.7668 109.577 60.2198 110.124C59.6727 110.671 59.3645 111.413 59.3623 112.186V148.999C59.3646 149.773 59.673 150.514 60.2201 151.061C60.7673 151.608 61.5087 151.916 62.2825 151.918H137.833C138.607 151.916 139.348 151.608 139.895 151.061C140.443 150.514 140.751 149.772 140.753 148.998V112.186C140.751 111.412 140.442 110.671 139.895 110.124C139.348 109.577 138.607 109.268 137.833 109.266L62.2819 109.266Z" fill="#5F2643"/>
<path d="M104.107 147.607C89.2069 147.607 73.6697 147.465 67.8726 147.373C67.1099 147.357 66.3836 147.044 65.8487 146.5C65.3138 145.956 65.0127 145.224 65.0098 144.461V113.988C65.0101 113.715 65.1185 113.453 65.3115 113.26C65.5044 113.066 65.7661 112.957 66.0392 112.956H134.074C134.347 112.956 134.609 113.065 134.803 113.258C134.996 113.451 135.105 113.712 135.106 113.985V134.661C135.093 138.036 133.758 141.272 131.388 143.674C129.017 146.076 125.799 147.453 122.424 147.51C117.021 147.58 110.624 147.607 104.107 147.607Z" fill="#2F323A"/>
<path d="M130.036 132.761H68.5606C68.0458 132.76 67.544 132.6 67.1233 132.304C66.7026 132.007 66.3834 131.588 66.2091 131.104L59.251 111.583C59.1169 111.207 59.0751 110.804 59.1291 110.408C59.1831 110.012 59.3314 109.635 59.5614 109.308C59.7915 108.981 60.0966 108.714 60.4511 108.53C60.8057 108.345 61.1993 108.249 61.5989 108.248L138.442 108.141C138.807 108.14 139.168 108.22 139.499 108.374C139.83 108.529 140.123 108.754 140.358 109.033C140.593 109.313 140.763 109.641 140.857 109.994C140.952 110.347 140.967 110.716 140.903 111.076L140.963 111.101L140.742 111.616L140.74 111.621L132.328 131.248C132.137 131.698 131.817 132.081 131.41 132.35C131.002 132.619 130.524 132.762 130.036 132.761ZM138.445 109.27L61.6011 109.377C61.3822 109.378 61.1666 109.43 60.9723 109.531C60.7781 109.633 60.6109 109.779 60.4849 109.958C60.3589 110.137 60.2777 110.343 60.2481 110.56C60.2184 110.777 60.2413 110.998 60.3148 111.204L67.2726 130.724C67.3682 130.989 67.5432 131.219 67.7738 131.381C68.0043 131.544 68.2793 131.631 68.5614 131.632H130.036C130.303 131.632 130.564 131.554 130.787 131.407C131.011 131.259 131.185 131.05 131.29 130.804L139.702 111.176C139.791 110.968 139.827 110.741 139.807 110.516C139.787 110.291 139.711 110.074 139.587 109.885C139.462 109.696 139.293 109.541 139.093 109.434C138.894 109.326 138.671 109.27 138.445 109.27Z" fill="#5F2643"/>
<path d="M99.9431 137.011C102.602 137.011 104.757 134.855 104.757 132.197C104.757 129.538 102.602 127.383 99.9431 127.383C97.2846 127.383 95.1294 129.538 95.1294 132.197C95.1294 134.855 97.2846 137.011 99.9431 137.011Z" fill="white"/>
<path d="M281.783 95.2215C284.441 95.2215 286.597 93.0663 286.597 90.4078C286.597 87.7493 284.441 85.5941 281.783 85.5941C279.124 85.5941 276.969 87.7493 276.969 90.4078C276.969 93.0663 279.124 95.2215 281.783 95.2215Z" fill="white"/>
<path d="M463.846 160.23L450.988 147.535C450.362 146.912 449.619 146.419 448.802 146.083C447.985 145.748 447.11 145.577 446.227 145.581H446.182C445.292 145.583 444.412 145.762 443.592 146.107C442.772 146.452 442.028 146.957 441.404 147.591C438.529 150.501 436.894 154.412 436.842 158.502C436.791 162.592 438.327 166.544 441.128 169.525C441.263 169.672 441.404 169.813 441.546 169.954C442.328 170.731 443.191 171.422 444.121 172.015C446.663 173.658 449.627 174.527 452.654 174.517H452.75C454.827 174.51 456.882 174.091 458.797 173.285C460.711 172.478 462.447 171.3 463.903 169.819C465.165 168.538 465.867 166.81 465.857 165.012C465.846 163.215 465.123 161.495 463.846 160.23ZM463.101 169.022C460.713 171.427 457.57 172.936 454.2 173.294C450.83 173.652 447.44 172.837 444.601 170.987C443.789 170.45 443.03 169.835 442.336 169.152C439.565 166.416 437.995 162.691 437.971 158.797C437.947 154.903 439.47 151.158 442.206 148.387C442.726 147.857 443.347 147.436 444.031 147.148C444.716 146.86 445.451 146.711 446.193 146.71H446.227C446.962 146.708 447.691 146.85 448.371 147.129C449.051 147.408 449.67 147.818 450.191 148.337L463.05 161.037C464.115 162.09 464.718 163.522 464.727 165.019C464.737 166.516 464.152 167.956 463.101 169.022Z" fill="#5F2643"/>
<path d="M421.656 118.565L408.797 105.864C407.532 104.608 405.82 103.906 404.037 103.91H403.997C403.106 103.914 402.225 104.094 401.404 104.44C400.583 104.786 399.839 105.291 399.214 105.926C396.837 108.34 395.296 111.452 394.816 114.806C394.337 118.159 394.944 121.578 396.549 124.562L396.554 124.567C397.216 125.788 398.039 126.914 398.999 127.916C399.107 128.04 399.231 128.165 399.355 128.289C402.308 131.22 406.303 132.861 410.463 132.852H410.565C412.643 132.843 414.698 132.423 416.612 131.616C418.526 130.808 420.262 129.63 421.718 128.148C422.343 127.514 422.838 126.764 423.173 125.94C423.508 125.116 423.678 124.233 423.672 123.343C423.666 122.453 423.485 121.573 423.139 120.753C422.793 119.933 422.289 119.19 421.656 118.565ZM420.911 127.357C419.559 128.732 417.948 129.826 416.172 130.575C414.395 131.324 412.487 131.714 410.559 131.722H410.463C407.568 131.721 404.737 130.864 402.327 129.258C399.917 127.653 398.036 125.37 396.92 122.698C395.804 120.026 395.503 117.084 396.055 114.241C396.607 111.399 397.987 108.783 400.022 106.722C401.074 105.658 402.507 105.055 404.004 105.045C405.501 105.036 406.94 105.621 408.007 106.672L420.865 119.366C421.929 120.421 422.531 121.855 422.54 123.352C422.548 124.85 421.962 126.291 420.911 127.357Z" fill="#5F2643"/>
<path d="M464.668 164.221L450.492 150.219C449.562 149.303 448.307 148.793 447.002 148.801C445.697 148.81 444.448 149.335 443.53 150.263C442.382 151.423 441.473 152.798 440.856 154.31C440.24 155.822 439.927 157.44 439.936 159.073C439.945 160.706 440.276 162.32 440.91 163.825C441.544 165.33 442.468 166.695 443.63 167.842C444.791 168.989 446.168 169.896 447.68 170.511C449.192 171.126 450.811 171.437 452.444 171.426C454.077 171.415 455.691 171.082 457.195 170.447C458.699 169.812 460.063 168.886 461.209 167.723L464.668 164.221Z" fill="#2F323A"/>
<path d="M422.481 122.553L408.304 108.552C407.375 107.636 406.12 107.126 404.815 107.134C403.509 107.142 402.261 107.668 401.343 108.595C400.194 109.755 399.286 111.131 398.669 112.643C398.052 114.154 397.74 115.773 397.749 117.405C397.758 119.038 398.089 120.653 398.723 122.158C399.356 123.662 400.28 125.027 401.442 126.175C402.604 127.322 403.98 128.229 405.493 128.844C407.005 129.459 408.624 129.77 410.256 129.759C411.889 129.748 413.503 129.415 415.007 128.78C416.511 128.144 417.875 127.219 419.021 126.056L422.481 122.553Z" fill="#2F323A"/>
<path d="M449.09 172.941L448.751 173.834C447.159 173.229 445.615 172.623 444.121 172.015C417.647 161.212 405.008 148.568 396.554 124.568L396.549 124.562C396.148 123.432 395.758 122.277 395.38 121.095L396.272 120.807C396.57 121.943 397.006 123.04 397.571 124.071C398.034 125.386 398.51 126.668 399 127.916C406.945 148.173 418.663 159.75 441.128 169.525C442.257 170.016 443.415 170.504 444.601 170.988C445.978 171.885 447.495 172.545 449.09 172.941Z" fill="#5F2643"/>
<path d="M408.561 131.824L407.768 132.628L437.098 161.597L437.892 160.793L408.561 131.824Z" fill="#5F2643"/>
<path d="M160.245 107.821L160.26 89.2623L149.351 90.2372L153.201 101.942L139.226 123.127C138.352 123.323 137.554 123.769 136.929 124.411C136.304 125.053 135.88 125.862 135.707 126.741C135.535 127.62 135.622 128.53 135.957 129.36C136.293 130.191 136.863 130.905 137.598 131.417C138.333 131.929 139.201 132.216 140.096 132.243C140.992 132.27 141.875 132.037 142.64 131.57C143.405 131.104 144.017 130.425 144.402 129.616C144.788 128.808 144.93 127.905 144.811 127.017L160.245 107.821Z" fill="#FFB6B6"/>
</svg>
