<svg width="57" height="39" viewBox="0 0 57 39" fill="none" xmlns="http://www.w3.org/2000/svg">
<path d="M56.373 3.87861C56.7506 3.44141 56.9561 2.86314 56.9463 2.26565C56.9366 1.66815 56.7122 1.09807 56.3206 0.675509C55.929 0.252949 55.4006 0.0109015 54.8469 0.000359318C54.2931 -0.0101828 53.7572 0.211603 53.352 0.618994L31.977 23.6823C31.767 23.8935 31.5985 24.1481 31.4817 24.431C31.3649 24.7139 31.3021 25.0193 31.297 25.329C31.2919 25.6386 31.3447 25.9462 31.4522 26.2334C31.5598 26.5206 31.7198 26.7815 31.9227 27.0005C32.1257 27.2195 32.3675 27.3921 32.6336 27.5081C32.8998 27.6241 33.1849 27.6811 33.4719 27.6756C33.7589 27.6702 34.0419 27.6024 34.3041 27.4763C34.5663 27.3503 34.8023 27.1685 34.998 26.9419L56.373 3.87861ZM56.8489 7.71635C56.9496 8.23501 57 8.77009 57 9.32155V30.5398C57 31.5696 56.812 32.5893 56.4468 33.5406C56.0816 34.492 55.5462 35.3565 54.8714 36.0846C54.1965 36.8128 53.3954 37.3904 52.5136 37.7844C51.6319 38.1785 50.6869 38.3813 49.7325 38.3813H7.2675C6.31312 38.3813 5.36808 38.1785 4.48635 37.7844C3.60461 37.3904 2.80345 36.8128 2.1286 36.0846C1.45375 35.3565 0.918432 34.492 0.553206 33.5406C0.18798 32.5893 0 31.5696 0 30.5398V9.32155C0 7.24185 0.765681 5.24733 2.1286 3.77676C3.49152 2.30618 5.34004 1.48002 7.2675 1.48002H48.5212L44.2462 6.09269H7.2675C5.6145 6.09269 4.275 7.53799 4.275 9.32155V30.5398C4.275 32.3234 5.6145 33.7687 7.2675 33.7687H49.7325C51.3855 33.7687 52.725 32.3234 52.725 30.5398V12.166L56.8489 7.71635ZM7.125 14.5492C7.125 13.9376 7.3502 13.3509 7.75106 12.9184C8.15192 12.4859 8.6956 12.2429 9.2625 12.2429H14.9625C15.5294 12.2429 16.0731 12.4859 16.4739 12.9184C16.8748 13.3509 17.1 13.9376 17.1 14.5492C17.1 15.1609 16.8748 15.7475 16.4739 16.1801C16.0731 16.6126 15.5294 16.8556 14.9625 16.8556H9.2625C8.6956 16.8556 8.15192 16.6126 7.75106 16.1801C7.3502 15.7475 7.125 15.1609 7.125 14.5492ZM7.125 25.3121C7.125 24.7004 7.3502 24.1138 7.75106 23.6813C8.15192 23.2488 8.6956 23.0058 9.2625 23.0058H23.5125C24.0794 23.0058 24.6231 23.2488 25.0239 23.6813C25.4248 24.1138 25.65 24.7004 25.65 25.3121C25.65 25.9238 25.4248 26.5104 25.0239 26.9429C24.6231 27.3755 24.0794 27.6185 23.5125 27.6185H9.2625C8.6956 27.6185 8.15192 27.3755 7.75106 26.9429C7.3502 26.5104 7.125 25.9238 7.125 25.3121Z" fill="#58BF52"/>
</svg>
