<svg width="45" height="44" viewBox="0 0 45 44" fill="none" xmlns="http://www.w3.org/2000/svg">
<path d="M0 21.8482C0 18.8315 0.574527 15.9945 1.72358 13.3371C2.87425 10.6797 4.43357 8.36786 6.40152 6.40153C8.36786 4.43195 10.6797 2.87263 13.3371 1.72358C15.9945 0.574527 18.8315 0 21.8482 0C27.1727 0 31.8094 1.65723 35.7582 4.97168C39.7071 8.28613 42.1711 12.4535 43.1502 17.4737C43.2473 17.8815 43.219 18.2659 43.0652 18.6268C42.9099 18.9877 42.6444 19.1965 42.269 19.2531C41.9016 19.3001 41.5876 19.2005 41.3271 18.9545C41.0681 18.7085 40.8942 18.401 40.8051 18.0321C40.208 14.8277 38.8906 11.9599 36.8531 9.42871C34.8123 6.9008 32.2382 5.02266 29.1309 3.79431V4.85516C29.1309 6.19033 28.6559 7.33371 27.7059 8.28533C26.7559 9.23694 25.6126 9.71193 24.2758 9.71031H19.4206V14.5655C19.4206 15.2533 19.1876 15.8302 18.7215 16.2963C18.2554 16.7624 17.6792 16.9947 16.993 16.9931H12.1379V21.8482H14.6601C15.2217 21.8482 15.6886 22.0343 16.0609 22.4065C16.4331 22.7788 16.6192 23.2465 16.6192 23.8097V29.1309H14.5655L2.91309 17.4786C2.79171 18.2068 2.68086 18.9351 2.58052 19.6634C2.48018 20.3917 2.4292 21.1199 2.42758 21.8482C2.42758 26.972 4.15763 31.3983 7.61774 35.1271C11.0778 38.8558 15.3989 40.8942 20.581 41.2421C20.95 41.2599 21.2534 41.3846 21.4913 41.616C21.7292 41.849 21.8482 42.1379 21.8482 42.4826C21.8482 42.8273 21.7171 43.1162 21.4549 43.3493C21.1928 43.5823 20.8772 43.6891 20.5082 43.6697C14.7532 43.3104 9.89642 41.0398 5.93785 36.8579C1.97928 32.676 0 27.6728 0 21.8482ZM42.8953 42.184L35.3771 34.7605C34.652 35.2784 33.8663 35.683 33.0199 35.9743C32.1735 36.2672 31.2818 36.4137 30.3447 36.4137C27.9641 36.4137 25.9532 35.5932 24.3122 33.9521C22.6695 32.3078 21.8482 30.2962 21.8482 27.9172C21.8482 25.5381 22.6695 23.5273 24.3122 21.8846C25.9548 20.242 27.9657 19.4206 30.3447 19.4206C32.7237 19.4206 34.7354 20.242 36.3797 21.8846C38.0239 23.5273 38.8445 25.5381 38.8412 27.9172C38.8412 28.885 38.6875 29.7993 38.38 30.6603C38.0725 31.5229 37.6436 32.3167 37.0934 33.0418L44.6116 40.4653C44.8705 40.6919 45 40.9702 45 41.3004C45 41.6306 44.8705 41.9251 44.6116 42.184C44.385 42.4106 44.1067 42.5239 43.7765 42.5239C43.4464 42.5239 43.1542 42.4106 42.8953 42.184ZM30.3447 33.9861C32.044 33.9861 33.4803 33.3994 34.6537 32.2261C35.827 31.0528 36.4137 29.6165 36.4137 27.9172C36.4137 26.2178 35.827 24.7815 34.6537 23.6082C33.4803 22.4349 32.044 21.8482 30.3447 21.8482C28.6454 21.8482 27.2091 22.4349 26.0358 23.6082C24.8624 24.7815 24.2758 26.2178 24.2758 27.9172C24.2758 29.6165 24.8624 31.0528 26.0358 32.2261C27.2091 33.3994 28.6454 33.9861 30.3447 33.9861Z" fill="#3741B5"/>
</svg>
