<svg width="49" height="38" viewBox="0 0 49 38" fill="none" xmlns="http://www.w3.org/2000/svg">
<path d="M46.7857 3.42857H38.2143V0.428572C38.2143 0.192857 38.0214 0 37.7857 0H34.7857C34.55 0 34.3571 0.192857 34.3571 0.428572V3.42857H26.4286V0.428572C26.4286 0.192857 26.2357 0 26 0H23C22.7643 0 22.5714 0.192857 22.5714 0.428572V3.42857H14.6429V0.428572C14.6429 0.192857 14.45 0 14.2143 0H11.2143C10.9786 0 10.7857 0.192857 10.7857 0.428572V3.42857H2.21429C1.26607 3.42857 0.5 4.19464 0.5 5.14286V36C0.5 36.9482 1.26607 37.7143 2.21429 37.7143H46.7857C47.7339 37.7143 48.5 36.9482 48.5 36V5.14286C48.5 4.19464 47.7339 3.42857 46.7857 3.42857ZM44.6429 33.8572H4.35714V7.28572H10.7857V10.2857C10.7857 10.5214 10.9786 10.7143 11.2143 10.7143H14.2143C14.45 10.7143 14.6429 10.5214 14.6429 10.2857V7.28572H22.5714V10.2857C22.5714 10.5214 22.7643 10.7143 23 10.7143H26C26.2357 10.7143 26.4286 10.5214 26.4286 10.2857V7.28572H34.3571V10.2857C34.3571 10.5214 34.55 10.7143 34.7857 10.7143H37.7857C38.0214 10.7143 38.2143 10.5214 38.2143 10.2857V7.28572H44.6429V33.8572ZM19.3571 18H9.5C9.26429 18 9.07143 18.1929 9.07143 18.4286V21C9.07143 21.2357 9.26429 21.4286 9.5 21.4286H19.3571C19.5929 21.4286 19.7857 21.2357 19.7857 21V18.4286C19.7857 18.1929 19.5929 18 19.3571 18ZM19.3571 25.2857H9.5C9.26429 25.2857 9.07143 25.4786 9.07143 25.7143V28.2857C9.07143 28.5214 9.26429 28.7143 9.5 28.7143H19.3571C19.5929 28.7143 19.7857 28.5214 19.7857 28.2857V25.7143C19.7857 25.4786 19.5929 25.2857 19.3571 25.2857ZM35.8679 15.7821L30.3179 23.4804L27.4893 19.5643C27.3286 19.3393 27.0714 19.2107 26.7982 19.2107H23.8571C23.5089 19.2107 23.3054 19.6071 23.5089 19.8911L29.6214 28.3661C29.7003 28.4756 29.8042 28.5648 29.9243 28.6263C30.0445 28.6878 30.1775 28.7199 30.3125 28.7199C30.4475 28.7199 30.5805 28.6878 30.7007 28.6263C30.8208 28.5648 30.9247 28.4756 31.0036 28.3661L39.8429 16.1143C40.0464 15.8304 39.8429 15.4339 39.4946 15.4339H36.5536C36.2857 15.4286 36.0286 15.5625 35.8679 15.7821Z" fill="#FF791A"/>
</svg>
